<svg xmlns="http://www.w3.org/2000/svg" xmlns:xlink="http://www.w3.org/1999/xlink"  width="286" height="46.57434563928609" viewBox="-4 0 374.1282051282051 60.925791395268355" class="looka-1j8o68f"><defs id="SvgjsDefs1639"></defs><g id="SvgjsG1640" featurekey="HKaMnE-0" transform="matrix(0.5399734740761614,0,0,0.5399734740761614,-6.861859515595421,13.840106103695355)" fill="#e23e57"><g xmlns="http://www.w3.org/2000/svg"><path d="M43.8,69.4c0.8,0.1,1.6,0.2,2.4,0.2c0,0,0,0,0,0c0.3,0,0.6-0.3,0.6-0.6c0-0.3-0.2-0.6-0.6-0.6c-0.8,0-1.5-0.1-2.3-0.2   c-0.3,0-0.6,0.2-0.7,0.5C43.2,69.1,43.4,69.4,43.8,69.4z"></path><path d="M29.1,29.4c-0.2,0.2-0.2,0.6,0,0.8c0.1,0.1,0.3,0.2,0.4,0.2c0.2,0,0.3-0.1,0.4-0.2c0.5-0.6,1.1-1.1,1.6-1.6   c0.2-0.2,0.3-0.6,0-0.8c-0.2-0.2-0.6-0.3-0.8,0C30.3,28.3,29.7,28.8,29.1,29.4z"></path><path d="M45.8,22.8c0.3,0,0.6-0.3,0.6-0.6c0-0.3-0.3-0.6-0.6-0.6c-0.8,0-1.6,0.1-2.4,0.2c-0.3,0-0.5,0.3-0.5,0.7   c0,0.3,0.3,0.5,0.6,0.5c0,0,0.1,0,0.1,0C44.3,22.9,45.1,22.9,45.8,22.8z"></path><path d="M23.1,41.9c-0.1,0.8-0.2,1.6-0.3,2.4c0,0.3,0.2,0.6,0.6,0.6c0,0,0,0,0,0c0.3,0,0.6-0.2,0.6-0.6c0-0.8,0.1-1.5,0.2-2.3   c0.1-0.3-0.2-0.6-0.5-0.7C23.5,41.3,23.2,41.5,23.1,41.9z"></path><path d="M27.5,59.7c0.1,0.2,0.3,0.2,0.5,0.2c0.1,0,0.2,0,0.3-0.1c0.3-0.2,0.3-0.6,0.1-0.8c-0.5-0.6-0.9-1.3-1.3-1.9   c-0.2-0.3-0.5-0.4-0.8-0.2c-0.3,0.2-0.4,0.5-0.2,0.8C26.5,58.4,27,59.1,27.5,59.7z"></path><path d="M23.8,50.2c0,0,0.1,0,0.1,0c0.3-0.1,0.5-0.4,0.5-0.7c-0.1-0.8-0.2-1.5-0.3-2.3c0-0.3-0.3-0.6-0.6-0.6   c-0.3,0-0.6,0.3-0.6,0.6c0.1,0.8,0.2,1.6,0.3,2.4C23.3,50,23.5,50.2,23.8,50.2z"></path><path d="M24.2,39.6c0.1,0,0.1,0,0.2,0c0.3,0,0.5-0.2,0.6-0.4c0.2-0.7,0.5-1.5,0.8-2.2c0.1-0.3,0-0.6-0.3-0.8   c-0.3-0.1-0.6,0-0.8,0.3c-0.3,0.7-0.6,1.5-0.8,2.3C23.7,39.2,23.9,39.5,24.2,39.6z"></path><path d="M24.8,55c0.1,0.2,0.3,0.4,0.5,0.4c0.1,0,0.2,0,0.2,0c0.3-0.1,0.4-0.5,0.3-0.8c-0.3-0.7-0.6-1.4-0.8-2.2   C25,52,24.6,51.9,24.3,52c-0.3,0.1-0.5,0.4-0.4,0.7C24.2,53.5,24.4,54.2,24.8,55z"></path><path d="M69,40.1c0.1,0.3,0.3,0.4,0.6,0.4c0,0,0.1,0,0.1,0c0.3-0.1,0.5-0.4,0.4-0.7c-0.2-0.8-0.4-1.6-0.7-2.3   c-0.1-0.3-0.5-0.5-0.8-0.4c-0.3,0.1-0.5,0.5-0.4,0.8C68.6,38.6,68.8,39.3,69,40.1z"></path><path d="M67,32.6c-0.2-0.3-0.5-0.4-0.8-0.2c-0.3,0.2-0.4,0.5-0.2,0.8c0.4,0.6,0.8,1.3,1.2,2c0.1,0.2,0.3,0.3,0.5,0.3   c0.1,0,0.2,0,0.3-0.1c0.3-0.1,0.4-0.5,0.3-0.8C67.8,33.9,67.4,33.2,67,32.6z"></path><path d="M48.8,21.7c-0.3,0-0.6,0.2-0.6,0.5c0,0.3,0.2,0.6,0.5,0.6c0.8,0.1,1.5,0.2,2.3,0.3c0,0,0.1,0,0.1,0c0.3,0,0.5-0.2,0.6-0.5   c0.1-0.3-0.2-0.6-0.5-0.7C50.4,21.9,49.6,21.8,48.8,21.7z"></path><path d="M66.4,58.5c0.1,0.1,0.2,0.1,0.3,0.1c0.2,0,0.4-0.1,0.5-0.3c0.4-0.7,0.8-1.4,1.2-2.1c0.1-0.3,0-0.6-0.3-0.8   c-0.3-0.1-0.6,0-0.8,0.3c-0.3,0.7-0.7,1.4-1.1,2C66,58,66.1,58.3,66.4,58.5z"></path><path d="M68.8,53.7c0.1,0,0.1,0,0.2,0c0.2,0,0.5-0.2,0.6-0.4c0.3-0.8,0.5-1.6,0.7-2.3c0.1-0.3-0.1-0.6-0.4-0.7   c-0.3-0.1-0.6,0.1-0.7,0.4c-0.2,0.7-0.4,1.5-0.6,2.2C68.3,53.3,68.5,53.6,68.8,53.7z"></path><path d="M58.3,25.2c-0.2,0.3-0.1,0.6,0.2,0.8c0.7,0.4,1.3,0.8,1.9,1.3c0.1,0.1,0.2,0.1,0.4,0.1c0.2,0,0.4-0.1,0.5-0.2   c0.2-0.3,0.1-0.6-0.1-0.8c-0.6-0.5-1.3-0.9-2-1.4C58.9,24.9,58.5,24.9,58.3,25.2z"></path><path d="M70.7,48c0.1-0.8,0.1-1.6,0.1-2.4c0-0.1,0-0.1,0-0.2c0-0.1,0-0.1,0-0.2c0-0.8-0.1-1.6-0.2-2.4c0-0.3-0.3-0.6-0.7-0.5   c-0.3,0-0.6,0.3-0.5,0.7c0.1,0.8,0.1,1.5,0.2,2.3c0,0.1,0,0.1,0,0.2c0,0.1,0,0.1,0,0.2c0,0.8,0,1.5-0.1,2.3c0,0.3,0.2,0.6,0.5,0.6   c0,0,0,0,0.1,0C70.4,48.6,70.7,48.3,70.7,48z"></path><path d="M26.2,34.7c0.1,0.1,0.2,0.1,0.3,0.1c0.2,0,0.4-0.1,0.5-0.3c0.4-0.7,0.8-1.3,1.2-2c0.2-0.3,0.1-0.6-0.1-0.8   c-0.3-0.2-0.6-0.1-0.8,0.1c-0.5,0.7-0.9,1.4-1.3,2.1C25.8,34.1,25.9,34.5,26.2,34.7z"></path><path d="M51.4,67.9c-0.7,0.2-1.5,0.3-2.3,0.3c-0.3,0-0.6,0.3-0.5,0.6c0,0.3,0.3,0.5,0.6,0.5c0,0,0,0,0.1,0c0.8-0.1,1.6-0.2,2.4-0.4   c0.3-0.1,0.5-0.4,0.5-0.7C52,68.1,51.7,67.9,51.4,67.9z"></path><path d="M56,24.7c0.1,0,0.2,0.1,0.2,0.1c0.2,0,0.4-0.1,0.5-0.4c0.1-0.3,0-0.7-0.3-0.8c-0.7-0.3-1.5-0.6-2.3-0.9   c-0.3-0.1-0.6,0.1-0.7,0.4c-0.1,0.3,0.1,0.6,0.4,0.7C54.6,24.1,55.3,24.4,56,24.7z"></path><path d="M57.1,66.6c-0.1-0.3-0.5-0.4-0.8-0.3c-0.7,0.3-1.4,0.6-2.1,0.9c-0.3,0.1-0.5,0.4-0.4,0.8c0.1,0.2,0.3,0.4,0.6,0.4   c0.1,0,0.1,0,0.2,0c0.8-0.3,1.5-0.6,2.3-0.9C57.1,67.3,57.3,66.9,57.1,66.6z"></path><path d="M41.1,67.7c-0.7-0.2-1.5-0.4-2.2-0.7c-0.3-0.1-0.6,0-0.8,0.3c-0.1,0.3,0,0.6,0.3,0.8c0.8,0.3,1.5,0.5,2.3,0.7   c0.1,0,0.1,0,0.2,0c0.3,0,0.5-0.2,0.6-0.4C41.6,68.1,41.4,67.7,41.1,67.7z"></path><path d="M60.8,63.7c-0.6,0.5-1.2,0.9-1.9,1.3c-0.3,0.2-0.4,0.5-0.2,0.8c0.1,0.2,0.3,0.3,0.5,0.3c0.1,0,0.2,0,0.3-0.1   c0.7-0.4,1.4-0.9,2-1.4c0.3-0.2,0.3-0.6,0.1-0.8C61.4,63.5,61,63.5,60.8,63.7z"></path><path d="M38.5,24.4c0.7-0.3,1.5-0.5,2.2-0.7c0.3-0.1,0.5-0.4,0.4-0.7c-0.1-0.3-0.4-0.5-0.7-0.4c-0.8,0.2-1.6,0.5-2.3,0.8   c-0.3,0.1-0.5,0.5-0.3,0.8c0.1,0.2,0.3,0.4,0.6,0.4C38.4,24.4,38.4,24.4,38.5,24.4z"></path><path d="M63.8,62.6c0.6-0.6,1.1-1.2,1.6-1.8c0.2-0.3,0.2-0.6-0.1-0.8c-0.3-0.2-0.6-0.2-0.8,0.1c-0.5,0.6-1,1.2-1.6,1.7   c-0.2,0.2-0.2,0.6,0,0.8c0.1,0.1,0.3,0.2,0.4,0.2C63.5,62.8,63.7,62.7,63.8,62.6z"></path><path d="M64.7,31.1c0.1,0,0.3,0,0.4-0.1c0.3-0.2,0.3-0.6,0.1-0.8c-0.5-0.6-1.1-1.2-1.7-1.8c-0.2-0.2-0.6-0.2-0.8,0   c-0.2,0.2-0.2,0.6,0,0.8c0.6,0.5,1.1,1.1,1.6,1.7C64.4,31,64.5,31.1,64.7,31.1z"></path><path d="M35.7,66.8c0.1,0,0.2,0.1,0.3,0.1c0.2,0,0.4-0.1,0.5-0.3c0.2-0.3,0-0.6-0.2-0.8c-0.7-0.4-1.3-0.8-2-1.2   c-0.3-0.2-0.6-0.1-0.8,0.2c-0.2,0.3-0.1,0.6,0.2,0.8C34.3,66,35,66.5,35.7,66.8z"></path><path d="M30.3,61.3c-0.2-0.2-0.6-0.2-0.8,0c-0.2,0.2-0.2,0.6,0,0.8c0.6,0.6,1.1,1.2,1.8,1.7c0.1,0.1,0.3,0.1,0.4,0.1   c0.2,0,0.3-0.1,0.4-0.2c0.2-0.2,0.2-0.6-0.1-0.8C31.4,62.4,30.8,61.8,30.3,61.3z"></path><path d="M33.9,26.8c0.6-0.4,1.3-0.8,2-1.2c0.3-0.2,0.4-0.5,0.2-0.8c-0.2-0.3-0.5-0.4-0.8-0.2c-0.7,0.4-1.4,0.8-2.1,1.3   c-0.3,0.2-0.3,0.6-0.2,0.8c0.1,0.2,0.3,0.3,0.5,0.3C33.7,26.9,33.8,26.9,33.9,26.8z"></path><polygon points="48.2,18.1 51.6,18.1 46.8,4 42.1,18.1 45.5,18.1  "></polygon><polygon points="74.4,44.2 74.4,47 74.4,50.3 88.4,45.6 74.4,40.9  "></polygon><polygon points="45.5,73.2 42.1,73.2 46.8,87.2 51.6,73.2 48.2,73.2  "></polygon><polygon points="19.3,47 19.3,44.2 19.3,40.9 5.3,45.6 19.3,50.3  "></polygon><polygon points="67.3,27.1 69.7,29.5 76.3,16.2 63,22.8 65.4,25.2  "></polygon><polygon points="67.3,64.1 65.4,66.1 63,68.4 76.3,75 69.7,61.7  "></polygon><polygon points="26.4,64.1 24,61.7 17.4,75 30.7,68.4 28.3,66.1  "></polygon><polygon points="26.4,27.1 28.3,25.2 30.7,22.8 17.4,16.2 24,29.5  "></polygon><polygon points="60.4,13.8 56.3,19.7 58.9,20.8  "></polygon><polygon points="71.7,57.6 78.7,59.1 72.7,55.1  "></polygon><polygon points="33.3,77.4 37.3,71.5 34.8,70.4  "></polygon><polygon points="22,33.6 15,32.1 20.9,36.1  "></polygon><polygon points="72.9,36.6 78.9,32.7 71.9,34  "></polygon><polygon points="55.9,71.7 59.8,77.7 58.4,70.6  "></polygon><polygon points="20.8,54.7 14.8,58.6 21.8,57.2  "></polygon><polygon points="37.8,19.5 33.9,13.6 35.3,20.6  "></polygon></g></g><g id="SvgjsG1641" featurekey="J3GnXt-0" transform="matrix(1.7534896641782274,0,0,1.7534896641782274,63.246510335821775,16.98910572188788)" fill="#e23e57"><path d="M1.26 20 c-0.14 0 -0.26 -0.12 -0.26 -0.26 l0 -11.98 c0 -0.14 0.12 -0.26 0.26 -0.26 l2.6 0 c0.14 0 0.26 0.12 0.26 0.26 l0 9.36 l4.5 0 c0.14 0 0.26 0.12 0.26 0.26 l0 2.36 c0 0.14 -0.12 0.26 -0.26 0.26 l-7.36 0 z M11.14 20 c-0.08 0 -0.16 -0.04 -0.2 -0.12 c-0.06 -0.06 -0.06 -0.16 -0.04 -0.24 l4.66 -11.98 c0.04 -0.1 0.14 -0.16 0.24 -0.16 l2.68 0 c0.1 0 0.2 0.06 0.24 0.16 l4.58 11.98 c0.02 0.08 0.02 0.16 -0.04 0.24 c-0.04 0.08 -0.12 0.12 -0.2 0.12 l-2.78 0 c-0.1 0 -0.2 -0.06 -0.24 -0.16 l-0.74 -1.84 l-4.5 0.02 l-0.74 1.82 c-0.04 0.1 -0.14 0.16 -0.24 0.16 l-2.68 0 z M15.620000000000001 15.5 l2.88 0 l-1.44 -4.24 z M30.780000000000005 20 c-0.16 0 -0.26 -0.12 -0.26 -0.26 l0 -11.98 c0 -0.14 0.1 -0.26 0.26 -0.26 l4.88 0 c1.52 0 2.72 0.38 3.56 1.16 c1.24 1.12 1.66 3.24 1.06 4.8 c-0.22 0.56 -0.6 1.08 -1.08 1.46 c-0.28 0.22 -0.58 0.38 -0.88 0.54 c0.86 1.36 2.16 4.12 2.16 4.12 c0.02 0.04 0.06 0.1 0.06 0.16 c0 0.14 -0.12 0.26 -0.26 0.26 l-2.96 0 c-0.08 0 -0.18 -0.06 -0.22 -0.14 l-1.74 -3.82 c-0.62 0.04 -1.1 0.02 -1.74 0.02 l0 3.68 c0 0.14 -0.12 0.26 -0.26 0.26 l-2.58 0 z M33.620000000000005 13.280000000000001 c0 0 2.52 0.28 3.4 -0.3 c0.34 -0.22 0.54 -0.76 0.54 -1.16 c-0.02 -0.44 -0.24 -0.9 -0.6 -1.18 c-0.38 -0.32 -1.32 -0.42 -1.8 -0.42 l-1.54 0.04 l0 3.02 z M42.82 20 c-0.08 0 -0.16 -0.04 -0.2 -0.12 c-0.06 -0.06 -0.06 -0.16 -0.04 -0.24 l4.66 -11.98 c0.04 -0.1 0.14 -0.16 0.24 -0.16 l2.68 0 c0.1 0 0.2 0.06 0.24 0.16 l4.58 11.98 c0.02 0.08 0.02 0.16 -0.04 0.24 c-0.04 0.08 -0.12 0.12 -0.2 0.12 l-2.78 0 c-0.1 0 -0.2 -0.06 -0.24 -0.16 l-0.74 -1.84 l-4.5 0.02 l-0.74 1.82 c-0.04 0.1 -0.14 0.16 -0.24 0.16 l-2.68 0 z M47.300000000000004 15.5 l2.88 0 l-1.44 -4.24 z M59.260000000000005 20 c-0.1 0 -0.2 -0.06 -0.24 -0.16 l-4 -12 c-0.04 -0.08 -0.02 -0.16 0.02 -0.24 c0.06 -0.06 0.14 -0.1 0.22 -0.1 l2.8 0 c0.1 0 0.2 0.06 0.24 0.18 l2.38 7.82 l2.4 -7.82 c0.04 -0.12 0.14 -0.18 0.24 -0.18 l2.68 0 c0.08 0 0.16 0.04 0.22 0.1 c0.04 0.08 0.06 0.16 0.02 0.24 l-4.06 12 c-0.04 0.1 -0.12 0.16 -0.24 0.16 l-2.68 0 z M65.92000000000002 20 c-0.08 0 -0.16 -0.04 -0.2 -0.12 c-0.06 -0.06 -0.06 -0.16 -0.04 -0.24 l4.66 -11.98 c0.04 -0.1 0.14 -0.16 0.24 -0.16 l2.68 0 c0.1 0 0.2 0.06 0.24 0.16 l4.58 11.98 c0.02 0.08 0.02 0.16 -0.04 0.24 c-0.04 0.08 -0.12 0.12 -0.2 0.12 l-2.78 0 c-0.1 0 -0.2 -0.06 -0.24 -0.16 l-0.74 -1.84 l-4.5 0.02 l-0.74 1.82 c-0.04 0.1 -0.14 0.16 -0.24 0.16 l-2.68 0 z M70.4 15.5 l2.88 0 l-1.44 -4.24 z M85.30000000000001 20 l0 -11.98 c0 -0.5 0.1 -0.6 0.26 -0.6 l8.76 0 c0.14 0 0.26 0.1 0.26 0.24 l0 2.26 c0 0.14 -0.12 0.26 -0.26 0.26 l-5.92 0 l0 2.08 l3.74 0 c0.14 0 0.26 0.12 0.26 0.26 l0 2.24 c0 0.14 -0.12 0.26 -0.26 0.26 l-3.74 0 l0 2.14 l5.9 0 c0.14 0 0.26 0.12 0.26 0.26 l0 2.24 c0 0.14 -0.12 0.26 -0.26 0.26 l-8.74 0 c-0.16 0 -0.26 -0.12 -0.26 0.08 z M102.24000000000002 20 c-0.14 0 -0.26 -0.12 -0.26 -0.26 l0 -11.98 c0 -0.14 0.12 -0.26 0.26 -0.26 l2.6 0 c0.14 0 0.26 0.12 0.26 0.26 l0 9.36 l4.5 0 c0.14 0 0.26 0.12 0.26 0.26 l0 2.36 c0 0.14 -0.12 0.26 -0.26 0.26 l-7.36 0 z M112.12000000000002 20 c-0.08 0 -0.16 -0.04 -0.2 -0.12 c-0.06 -0.06 -0.06 -0.16 -0.04 -0.24 l4.66 -11.98 c0.04 -0.1 0.14 -0.16 0.24 -0.16 l2.68 0 c0.1 0 0.2 0.06 0.24 0.16 l4.58 11.98 c0.02 0.08 0.02 0.16 -0.04 0.24 c-0.04 0.08 -0.12 0.12 -0.2 0.12 l-2.78 0 c-0.1 0 -0.2 -0.06 -0.24 -0.16 l-0.74 -1.84 l-4.5 0.02 l-0.74 1.82 c-0.04 0.1 -0.14 0.16 -0.24 0.16 l-2.68 0 z M116.60000000000001 15.5 l2.88 0 l-1.44 -4.24 z M131.76 20 c-0.14 0 -0.26 -0.12 -0.26 -0.26 l0 -11.98 c0 -0.14 0.12 -0.26 0.26 -0.26 l8.26 0 c0.08 0 0.14 0.02 0.18 0.08 c0.06 0.04 0.08 0.1 0.08 0.18 l-0.02 2.24 c0 0.14 -0.12 0.26 -0.26 0.26 l-5.4 0 l0 2.42 l3.4 0 c0.14 0 0.26 0.12 0.26 0.26 l0 2.26 c0 0.14 -0.12 0.26 -0.26 0.26 l-3.4 0 l0 4.28 c0 0.14 -0.1 0.26 -0.24 0.26 l-2.6 0 z M139.73999999999998 20 c-0.08 0 -0.16 -0.04 -0.2 -0.12 c-0.06 -0.06 -0.06 -0.16 -0.04 -0.24 l4.66 -11.98 c0.04 -0.1 0.14 -0.16 0.24 -0.16 l2.68 0 c0.1 0 0.2 0.06 0.24 0.16 l4.58 11.98 c0.02 0.08 0.02 0.16 -0.04 0.24 c-0.04 0.08 -0.12 0.12 -0.2 0.12 l-2.78 0 c-0.1 0 -0.2 -0.06 -0.24 -0.16 l-0.74 -1.84 l-4.5 0.02 l-0.74 1.82 c-0.04 0.1 -0.14 0.16 -0.24 0.16 l-2.68 0 z M144.22 15.5 l2.88 0 l-1.44 -4.24 z M156.17999999999998 20 c-0.1 0 -0.2 -0.06 -0.24 -0.16 l-4 -12 c-0.04 -0.08 -0.02 -0.16 0.02 -0.24 c0.06 -0.06 0.14 -0.1 0.22 -0.1 l2.8 0 c0.1 0 0.2 0.06 0.24 0.18 l2.38 7.82 l2.4 -7.82 c0.04 -0.12 0.14 -0.18 0.24 -0.18 l2.68 0 c0.08 0 0.16 0.04 0.22 0.1 c0.04 0.08 0.06 0.16 0.02 0.24 l-4.06 12 c-0.04 0.1 -0.12 0.16 -0.24 0.16 l-2.68 0 z M162.83999999999997 20 c-0.08 0 -0.16 -0.04 -0.2 -0.12 c-0.06 -0.06 -0.06 -0.16 -0.04 -0.24 l4.66 -11.98 c0.04 -0.1 0.14 -0.16 0.24 -0.16 l2.68 0 c0.1 0 0.2 0.06 0.24 0.16 l4.58 11.98 c0.02 0.08 0.02 0.16 -0.04 0.24 c-0.04 0.08 -0.12 0.12 -0.2 0.12 l-2.78 0 c-0.1 0 -0.2 -0.06 -0.24 -0.16 l-0.74 -1.84 l-4.5 0.02 l-0.74 1.82 c-0.04 0.1 -0.14 0.16 -0.24 0.16 l-2.68 0 z M167.32 15.5 l2.88 0 l-1.44 -4.24 z"></path></g></svg>